<svg width="61" height="61" viewBox="0 0 61 61" fill="none" xmlns="http://www.w3.org/2000/svg">
<path d="M30.4999 0C13.6565 0 0 13.6565 0 30.5C0 47.3432 13.6565 61 30.4999 61C47.3434 61 60.9996 47.3431 60.9996 30.5C60.9997 13.6565 47.3434 0 30.4999 0ZM32.4063 57.0907V53.3748H28.5937V57.0907C15.4027 56.1531 4.84769 45.5976 3.90945 32.4066H7.62492V28.594H3.90945C4.84769 15.4026 15.4027 4.84757 28.5937 3.90933V7.62481H32.4063V3.90946C45.5974 4.84757 56.1522 15.4027 57.0903 28.5941H53.3751V32.4068H57.0903C56.1521 45.5976 45.5973 56.1531 32.4063 57.0907ZM44.5325 22.3983C44.7929 22.8528 44.6368 23.4375 44.1827 23.7018L34.1137 29.5134C34.2006 29.8373 34.3126 30.1503 34.3126 30.5C34.3126 32.6073 32.6052 34.3123 30.5001 34.3123C28.3943 34.3123 26.6874 32.6073 26.6874 30.5L16.3409 24.528C15.4286 23.9996 15.1161 22.8341 15.6427 21.922C16.1675 21.0061 17.3347 20.6936 18.247 21.2224L28.6533 27.2314C29.2078 26.9188 29.8148 26.6878 30.5001 26.6878C31.565 26.6878 32.5231 27.1271 33.2161 27.8346L43.2293 22.0486C43.6763 21.7841 44.2607 21.9405 44.5325 22.3983Z" fill="#DA9E00"/>
</svg>
