<svg width="35" height="37" viewBox="0 0 35 37" fill="none" xmlns="http://www.w3.org/2000/svg">
<path d="M35 36.5205V22.3923C35 14.822 31.2987 11.2995 26.3638 11.2995C22.3814 11.2995 20.5964 13.6912 19.6022 15.37V11.8786H12.0991C12.1986 14.1915 12.0991 36.5205 12.0991 36.5205H19.6022V22.7589C19.6022 22.0246 19.6503 21.2878 19.8494 20.7624C20.3908 19.2902 21.6256 17.7665 23.6972 17.7665C26.413 17.7665 27.498 20.0257 27.498 23.338V36.5217H35V36.5205ZM4.19453 8.51489C6.80969 8.51489 8.44047 6.6211 8.44047 4.25566C8.39234 1.83886 6.81078 0 4.24484 0C1.67891 0 0 1.83767 0 4.25566C0 6.6211 1.62859 8.51489 4.1475 8.51489H4.19453ZM7.94609 36.5205V11.8786H0.444063V36.5205H7.94609Z" fill="black"/>
</svg>
