<svg width="31" height="32" viewBox="0 0 31 32" fill="none" xmlns="http://www.w3.org/2000/svg">
<g filter="url(#filter0_d)">
<path d="M27 23.9992V14.715C27 9.74014 24.5678 7.42536 21.3248 7.42536C18.7078 7.42536 17.5348 8.99706 16.8814 10.1003V7.80592H11.9508C12.0162 9.32584 11.9508 23.9992 11.9508 23.9992H16.8814V14.9559C16.8814 14.4733 16.9131 13.9891 17.0439 13.6439C17.3997 12.6764 18.2111 11.6751 19.5724 11.6751C21.3571 11.6751 22.0701 13.1597 22.0701 15.3364V24H27V23.9992ZM6.75641 5.5955C8.47494 5.5955 9.54659 4.35101 9.54659 2.79657C9.51497 1.2084 8.47566 0 6.78947 0C5.10328 0 4 1.20761 4 2.79657C4 4.35101 5.07022 5.5955 6.7255 5.5955H6.75641ZM9.22172 23.9992V7.80592H4.29181V23.9992H9.22172Z" fill="white"/>
</g>
<defs>
<filter id="filter0_d" x="0" y="0" width="31" height="32" filterUnits="userSpaceOnUse" color-interpolation-filters="sRGB">
<feFlood flood-opacity="0" result="BackgroundImageFix"/>
<feColorMatrix in="SourceAlpha" type="matrix" values="0 0 0 0 0 0 0 0 0 0 0 0 0 0 0 0 0 0 127 0" result="hardAlpha"/>
<feOffset dy="4"/>
<feGaussianBlur stdDeviation="2"/>
<feComposite in2="hardAlpha" operator="out"/>
<feColorMatrix type="matrix" values="0 0 0 0 0 0 0 0 0 0 0 0 0 0 0 0 0 0 0.25 0"/>
<feBlend mode="normal" in2="BackgroundImageFix" result="effect1_dropShadow"/>
<feBlend mode="normal" in="SourceGraphic" in2="effect1_dropShadow" result="shape"/>
</filter>
</defs>
</svg>
