<svg width="69" height="70" viewBox="0 0 69 70" fill="none" xmlns="http://www.w3.org/2000/svg">
<path d="M66.0541 52.2891C65.6842 51.7514 65.3798 51.3563 65.1261 51.0259C64.1621 49.7643 63.8168 49.2088 63.5762 46.9172C63.2243 43.5649 62.0328 26.6249 62.2865 25.3779C64.7448 13.2462 63.8446 9.32535 62.6499 8.17551C62.3225 7.86294 61.789 7.55038 60.4666 7.85161C59.2244 8.24839 57.2735 15.6803 56.2948 23.76C56.2696 24.0096 56.1453 24.2392 55.9492 24.3983C55.7532 24.5574 55.5013 24.633 55.249 24.6086C54.9975 24.5883 54.7636 24.4731 54.5957 24.2868C54.4278 24.1004 54.3388 23.8573 54.3472 23.6077C54.8938 8.34394 51.1378 3.0595 48.8498 1.26833C46.7794 -0.35117 44.912 -0.0159333 44.3916 0.13468C44.1263 0.19902 43.8799 0.323933 43.6721 0.499417C43.4644 0.674902 43.301 0.896083 43.1952 1.14525C42.8678 1.88212 42.5994 3.65548 44.4636 7.23944C48.9463 15.8471 47.1149 22.3899 47.0364 22.6652C46.9722 22.8713 46.8406 23.0504 46.6623 23.1744C46.484 23.2984 46.2691 23.3601 46.0514 23.3499C45.8337 23.3397 45.6256 23.2581 45.4599 23.118C45.2943 22.9779 45.1804 22.7873 45.1362 22.5761C42.403 8.38928 34.12 4.04254 27.2085 1.84649C24.5163 0.9833 22.4197 1.21975 21.8649 2.46029C21.279 3.76884 22.4099 6.11388 25.3133 7.76739C32.0792 11.6186 36.1151 20.9242 36.2788 21.3194C36.3616 21.5233 36.3722 21.7489 36.3088 21.9595C36.2454 22.1701 36.1117 22.3532 35.9295 22.4789C35.7474 22.6046 35.5276 22.6656 35.306 22.6518C35.0843 22.6379 34.874 22.5502 34.7092 22.4028L32.8304 20.6748C29.0759 17.2139 22.6947 14.3442 17.0532 17.6642L16.3773 18.0448C15.8061 18.3687 15.0892 18.7606 14.7652 18.9954C11.3283 21.4765 7.27103 24.6135 6.54764 25.5414C6.27269 25.8912 5.84552 26.5423 6.05665 26.9423C6.35943 27.5124 7.88313 28.0565 10.091 27.9432C12.9436 27.799 14.9305 27.1334 16.6833 26.5326C19.9353 25.4297 22.513 24.5503 27.4164 28.2687C34.8549 33.9013 36.9089 40.091 33.7092 47.2168C31.0088 53.209 25.7568 53.1718 21.1562 53.1329C18.5655 53.1199 16.1285 53.0956 14.0336 53.9604C11.1908 55.1378 10.2595 57.5995 9.96166 58.8627C13.5213 59.8101 27.2036 63.3973 31.0743 63.7212C36.0889 64.1293 41.3392 64.6152 44.5356 64.918C45.6268 65.0238 46.6849 65.3487 47.645 65.8727C48.6051 66.3968 49.4472 67.109 50.1198 67.9659L51.7106 70L69 56.5662L66.0541 52.2891Z" fill="#DA9E00"/>
<path d="M25 41.5016C25.0003 39.0292 24.2674 36.6122 22.894 34.5564C21.5206 32.5005 19.5684 30.8981 17.2843 29.9518C15.0001 29.0055 12.4867 28.7578 10.0618 29.2401C7.63686 29.7224 5.40942 30.9129 3.66117 32.6612C1.91292 34.4094 0.722375 36.6369 0.240111 39.0618C-0.242153 41.4867 0.00552392 44.0001 0.951818 46.2843C1.89811 48.5684 3.50052 50.5206 5.55638 51.894C7.61224 53.2674 10.0292 54.0003 12.5016 54C15.8152 53.9962 18.992 52.6782 21.3351 50.3351C23.6782 47.992 24.9962 44.8152 25 41.5016ZM2.56456 41.5016C2.56424 39.5356 3.14692 37.6137 4.2389 35.9788C5.33089 34.344 6.88314 33.0697 8.69936 32.317C10.5156 31.5644 12.5142 31.3672 14.4425 31.7504C16.3708 32.1337 18.1421 33.0801 19.5325 34.47C20.9229 35.86 21.8699 37.631 22.2538 39.5592C22.6376 41.4873 22.4411 43.486 21.689 45.3025C20.937 47.119 19.6632 48.6716 18.0287 49.7641C16.3942 50.8566 14.4724 51.4399 12.5064 51.4403C9.87141 51.4364 7.34536 50.3882 5.48182 48.5253C3.61828 46.6623 2.56923 44.1366 2.56456 41.5016Z" fill="#DA9E00"/>
<path d="M13.6556 48.7764C13.7735 48.6839 13.8682 48.5639 13.9319 48.4265C13.9955 48.2891 14.0263 48.1382 14.0215 47.9862V47.6012C14.9099 47.4459 15.6008 47.1013 16.0731 46.5672C16.5956 46.0091 16.9169 45.2859 16.9842 44.5163C17.0184 44.1132 16.9969 43.7071 16.9205 43.31C16.8423 42.8558 16.6744 42.4226 16.4269 42.037C16.1442 41.6205 15.7796 41.2688 15.3564 41.0046C14.9436 40.7456 14.4922 40.5574 14.02 40.4472V36.4619L14.0565 36.4868C14.2718 36.6328 14.4643 36.8113 14.6274 37.0162C14.7674 37.1863 14.8741 37.3824 14.9418 37.5937C15.0157 37.8233 15.0636 38.0608 15.0845 38.3016C15.1574 38.9226 15.5902 39.1586 16.0276 39.1089C16.4406 39.0577 16.7504 38.7457 16.8643 38.1278C16.8354 37.0658 16.4968 36.2042 15.859 35.563C15.3514 35.0542 14.7142 34.7013 14.02 34.5446V34.0214C14.0206 33.8733 13.9893 33.7269 13.9281 33.5928C13.8669 33.4586 13.7775 33.3398 13.6662 33.2451C13.2835 32.9346 12.8173 32.888 12.3451 33.287C12.2489 33.3822 12.1732 33.4968 12.1228 33.6234C12.0723 33.7501 12.0482 33.8862 12.052 34.0229V34.439C11.6536 34.4906 11.2623 34.5885 10.8857 34.7309C10.3771 34.9198 9.91191 35.2136 9.51901 35.5941C9.14546 35.9571 8.85282 36.3982 8.66103 36.8873C8.46838 37.3948 8.39454 37.9414 8.44539 38.4833C8.53482 39.4419 8.98248 40.3283 9.69517 40.958C10.3748 41.5144 11.1944 41.8632 12.0596 41.964V45.8453C11.5428 45.7947 11.0469 45.6109 10.6185 45.3112C10.215 45.0229 9.922 44.6004 9.78932 44.1158C9.765 43.8937 9.6598 43.6891 9.49463 43.5426C9.32946 43.3962 9.11644 43.3187 8.89792 43.3256C8.76457 43.3063 8.62861 43.3221 8.50292 43.3715C8.37722 43.421 8.26595 43.5024 8.17965 43.6081C8.0996 43.7063 8.04397 43.8228 8.01753 43.9477C7.99108 44.0726 7.99461 44.2022 8.02779 44.3254C8.10792 44.8334 8.29359 45.318 8.5723 45.7464C8.85101 46.1749 9.21629 46.5374 9.64354 46.8094C10.3782 47.2666 11.2048 47.5475 12.0611 47.6307V47.9862C12.0554 48.1327 12.0822 48.2787 12.1396 48.4131C12.1969 48.5476 12.2832 48.667 12.3921 48.7625C12.5708 48.9147 12.7958 48.9987 13.0284 49C13.2556 48.9965 13.4755 48.9181 13.6556 48.7764ZM10.4089 38.949C10.3437 38.7596 10.2999 38.5633 10.2783 38.3637C10.2612 38.0882 10.3016 37.8121 10.3969 37.5538C10.4922 37.2955 10.6402 37.0609 10.831 36.8656C11.165 36.5331 11.5925 36.3159 12.0535 36.2446V40.1258C11.8486 40.0773 11.6495 40.006 11.4597 39.9131C11.1878 39.7805 10.937 39.6067 10.7156 39.3977C10.5816 39.2737 10.4768 39.1203 10.4089 38.949ZM15.2227 44.4558C15.2122 44.5755 15.1851 44.6932 15.1422 44.8051C15.0928 44.9608 15.0161 45.1059 14.916 45.2336C14.7643 45.4079 14.5813 45.5507 14.3769 45.6543C14.2646 45.7151 14.1452 45.761 14.0215 45.791V42.332C14.3226 42.4388 14.5944 42.6177 14.8142 42.8536C15.0997 43.1952 15.2394 43.7292 15.2227 44.4434V44.4558Z" fill="#DA9E00"/>
</svg>
