<svg width="53" height="62" viewBox="0 0 53 62" fill="none" xmlns="http://www.w3.org/2000/svg">
<path d="M51.002 8.77314C51.002 8.77314 40.8908 6.98881 38.0161 5.99752C33.9532 4.87244 30.1541 2.95185 26.8393 0.347146C26.6189 0.134391 26.3276 0.0107899 26.0214 0.000193534C25.6901 -0.00560266 25.3697 0.118994 25.1293 0.347146C21.8465 2.97304 18.059 4.89628 14.002 5.99752C11.152 6.98881 1.23912 8.77314 1.04086 8.77314C0.751872 8.81997 0.488801 8.96761 0.298277 9.18989C0.107754 9.41217 0.00208475 9.69472 0 9.98747C0 30.0612 0.247823 39.3297 6.39384 48.7718C11.6477 56.8508 24.9806 61.7577 25.5506 61.9808C25.6898 62.0064 25.8326 62.0064 25.9719 61.9808H26.3932C26.9632 61.7577 40.3952 56.8508 45.649 48.7718C51.7951 39.3297 52.0429 30.0612 52.0429 9.98747C52.0408 9.69472 51.9351 9.41217 51.7446 9.18989C51.5541 8.96761 51.291 8.81997 51.002 8.77314ZM43.5673 47.4336C39.2552 54.0504 28.2519 58.5856 25.9719 59.4778C23.6919 58.5856 12.7877 54.0504 8.47556 47.4336C3.02344 39.0571 2.50302 31.5729 2.47823 11.0283C6.64966 10.4227 10.7859 9.5954 14.8694 8.5501C18.8652 7.2529 22.6295 5.32892 26.0214 2.85016C29.4512 5.26258 33.2399 7.11926 37.2478 8.35184C41.3314 9.39687 45.4676 10.2241 49.639 10.8301C49.5399 31.4737 49.0194 38.958 43.5673 47.3344V47.4336Z" fill="#DA9E00"/>
<path d="M14.4233 32.242C14.3022 32.1343 14.1607 32.0519 14.0073 31.9997C13.8538 31.9475 13.6915 31.9266 13.5298 31.9381C13.3681 31.9497 13.2104 31.9935 13.0659 32.0669C12.9214 32.1404 12.7931 32.242 12.6885 32.3659C12.4788 32.6205 12.3769 32.9472 12.4047 33.2759C12.4324 33.6047 12.5877 33.9096 12.8372 34.1254L25.2284 44.7075C25.4461 44.9026 25.7291 45.0088 26.0214 45.0049H26.1949C26.3695 44.9796 26.5369 44.918 26.6863 44.8241C26.8357 44.7302 26.9638 44.606 27.0623 44.4597L41.4856 23.2956C41.6729 23.0228 41.7442 22.6868 41.6838 22.3614C41.6234 22.0361 41.4362 21.7481 41.1634 21.5608C40.8907 21.3735 40.5547 21.3022 40.2293 21.3626C39.904 21.423 39.616 21.6102 39.4287 21.883L25.7736 41.9319L14.4233 32.242Z" fill="#DA9E00"/>
</svg>
