<svg width="52" height="61" viewBox="0 0 52 61" fill="none" xmlns="http://www.w3.org/2000/svg">
<path d="M26 0C11.7 0 0 11.5464 0 25.925V33.55C0 33.7679 0 33.7679 0 33.9857C0 34.2036 0 34.6393 0 34.8571C0 40.9571 4.76667 45.75 10.8333 45.75C12.1333 45.75 13 44.8786 13 43.5714V26.1429C13 24.8357 12.1333 23.9643 10.8333 23.9643C8.45 23.9643 6.06667 24.8357 4.33333 26.1429V25.7071C4.33333 13.9429 14.0833 4.35714 26 4.35714C37.9167 4.35714 47.6667 13.9429 47.6667 25.925V26.1429C45.9333 24.8357 43.55 23.9643 41.1667 23.9643C39.8667 23.9643 39 24.8357 39 26.1429V43.5714C39 44.8786 39.8667 45.75 41.1667 45.75C42.6833 45.75 44.2 45.3143 45.5 44.8786C43.3333 49.4536 39.4333 52.9393 34.6667 54.9C34.6667 54.6821 34.6667 54.6821 34.6667 54.4643C34.6667 53.1571 33.8 52.2857 32.5 52.2857H26C24.7 52.2857 23.8333 53.1571 23.8333 54.4643V58.8214C23.8333 60.1286 24.7 61 26 61C40.3 61 52 49.6714 52 35.7286V33.55V28.3214V25.925C52 11.5464 40.3 0 26 0Z" fill="#DA9E00"/>
</svg>
