<svg width="31" height="31" viewBox="0 0 31 31" fill="none" xmlns="http://www.w3.org/2000/svg">
<g filter="url(#filter0_d)">
<path d="M14.8947 0.00334717C12.9499 0.0256312 8.7689 0.328981 6.43038 2.36545C4.69087 4.00153 4.08352 6.42042 4.01234 9.41151C3.95327 12.3918 3.88208 17.9887 9.56558 19.5126V21.8338C9.56558 21.8338 9.52998 22.7625 10.1767 22.953C10.9734 23.1924 11.427 22.4778 12.1843 21.7101L13.5967 20.1941C17.4854 20.501 20.4638 19.7937 20.8069 19.6887C21.596 19.4494 26.0405 18.9102 26.7668 13.3126C27.5119 7.53174 26.404 3.88939 24.404 2.24181H24.3919C23.7883 1.71418 21.3627 0.0364137 15.9435 0.0177239C15.9435 0.0177239 15.5414 -0.00815425 14.8947 0.00262833V0.00334717ZM14.9613 1.62864C15.5134 1.62505 15.8489 1.64733 15.8489 1.64733C20.4358 1.65883 22.6251 2.96928 23.1416 3.41064C24.8258 4.78075 25.6937 8.0644 25.0583 12.8907C24.4547 17.5703 20.85 17.8665 20.1828 18.0685C19.8989 18.1547 17.2756 18.7686 13.9708 18.5666C13.9708 18.5666 11.5096 21.3859 10.7401 22.1119C10.6182 22.2392 10.4758 22.2766 10.385 22.2579C10.2547 22.2277 10.2153 22.0746 10.2229 21.8647L10.2464 18.0124C5.42621 16.7473 5.71019 11.9734 5.76169 9.4798C5.82076 6.98615 6.31375 4.94608 7.78139 3.56447C9.75717 1.86873 13.3074 1.64014 14.9598 1.62864H14.9613ZM15.3248 4.12157C15.159 4.11798 15.0211 4.24881 15.0211 4.40623C15.0211 4.56725 15.159 4.69449 15.3248 4.69449C16.8432 4.66861 18.307 5.21493 19.3953 6.21843C20.4956 7.23271 21.0318 8.59563 21.0522 10.3776C21.0522 10.5351 21.1863 10.6659 21.3559 10.6659V10.6544C21.5217 10.6544 21.6596 10.5271 21.6596 10.3697C21.7345 8.67398 21.0719 7.0264 19.8292 5.80581C18.6304 4.69377 17.1113 4.12085 15.3248 4.12085V4.12157ZM11.3331 4.78075C11.1203 4.75056 10.8992 4.79225 10.7136 4.89648H10.6977C10.2873 5.12507 9.90485 5.41333 9.5421 5.79862C9.26569 6.10197 9.11574 6.40892 9.07636 6.70436C9.05289 6.88048 9.06879 7.05659 9.12407 7.2248L9.14376 7.2363C9.45501 8.10466 9.86168 8.93995 10.3585 9.72636C10.9976 10.8305 11.786 11.8527 12.7015 12.7663L12.7288 12.8037L12.772 12.8339L12.7992 12.8641L12.831 12.89C13.7973 13.7626 14.8742 14.5109 16.042 15.1248C17.3748 15.8135 18.1836 16.1391 18.669 16.2743V16.2814C18.8114 16.3224 18.9409 16.3411 19.0711 16.3411C19.4854 16.3109 19.8761 16.1542 20.1836 15.8882C20.5782 15.5511 20.8894 15.1809 21.1227 14.7877V14.7805C21.3551 14.365 21.2764 13.9718 20.9409 13.7058C20.2707 13.148 19.5407 12.6535 18.7712 12.2272C18.2548 11.9612 17.73 12.1222 17.5172 12.3918L17.0635 12.9345C16.8311 13.2041 16.4085 13.1667 16.4085 13.1667L16.3964 13.1739C13.2453 12.4098 12.4047 9.38132 12.4047 9.38132C12.4047 9.38132 12.3653 8.96942 12.6569 8.75952L13.2248 8.32534C13.4967 8.11544 13.686 7.618 13.3945 7.12704C12.9484 6.3931 12.4282 5.70446 11.8405 5.06757C11.714 4.91805 11.533 4.81669 11.3316 4.77931L11.3331 4.78075ZM15.8489 5.63473C15.4467 5.63473 15.4467 6.21124 15.8526 6.21124C16.8621 6.22633 17.8246 6.62313 18.5266 7.31178C19.1658 7.98174 19.4967 8.8731 19.4339 9.77524C19.4377 9.93267 19.5717 10.0599 19.7376 10.0599L19.7497 10.075C19.9155 10.075 20.0533 9.94417 20.0533 9.78674C20.0806 8.64451 19.7065 7.68629 18.9727 6.91857C18.2351 6.15086 17.2059 5.72027 15.892 5.63473C15.8761 5.63473 15.8648 5.63473 15.8489 5.63473ZM16.3464 7.18455C15.9322 7.17304 15.9162 7.76105 16.3267 7.77256C17.3248 7.82144 17.8095 8.30018 17.8731 9.28499C17.8769 9.44242 18.0109 9.56606 18.173 9.56606H18.1851C18.3547 9.55887 18.4888 9.42013 18.4767 9.25911C18.4055 7.97527 17.6679 7.25212 16.3585 7.18526C16.3547 7.18526 16.3509 7.18526 16.3464 7.18526V7.18455Z" fill="white"/>
</g>
<defs>
<filter id="filter0_d" x="0" y="0" width="31" height="31" filterUnits="userSpaceOnUse" color-interpolation-filters="sRGB">
<feFlood flood-opacity="0" result="BackgroundImageFix"/>
<feColorMatrix in="SourceAlpha" type="matrix" values="0 0 0 0 0 0 0 0 0 0 0 0 0 0 0 0 0 0 127 0" result="hardAlpha"/>
<feOffset dy="4"/>
<feGaussianBlur stdDeviation="2"/>
<feComposite in2="hardAlpha" operator="out"/>
<feColorMatrix type="matrix" values="0 0 0 0 0 0 0 0 0 0 0 0 0 0 0 0 0 0 0.25 0"/>
<feBlend mode="normal" in2="BackgroundImageFix" result="effect1_dropShadow"/>
<feBlend mode="normal" in="SourceGraphic" in2="effect1_dropShadow" result="shape"/>
</filter>
</defs>
</svg>
